<!DOCTYPE svg PUBLIC "-//W3C//DTD SVG 1.1//EN"
 "http://www.w3.org/Graphics/SVG/1.1/DTD/svg11.dtd">
<svg version="1.1"
 width="840px" height="190px"
 viewBox="0 0 840 190"
 xmlns="http://www.w3.org/2000/svg" shape-rendering="crispEdges"
 stroke-width="1" text-rendering="geometricPrecision">
<polygon fill="white" points="192,7 226,7 226,16 192,16"/>
<text x="210" y="16" textLength="33" font-family="Helvetica" font-size="12" fill="black" text-anchor="middle">

host 0
</text>
<polygon fill="white" points="611,7 647,7 647,16 611,16"/>
<text x="630" y="16" textLength="35" font-family="Helvetica" font-size="12" fill="black" text-anchor="middle">

DMSC
</text>
<line x1="210" y1="22" x2="210" y2="50" stroke="black"/>
<line x1="630" y1="22" x2="630" y2="50" stroke="black"/>
<polygon fill="white" points="8,22 412,22 412,44 8,44"/>
<line x1="8" y1="22" x2="412" y2="22" stroke="black"/>
<line x1="8" y1="44" x2="412" y2="44" stroke="black"/>
<line x1="8" y1="22" x2="8" y2="44" stroke="black"/>
<line x1="412" y1="22" x2="412" y2="44" stroke="black"/>
<polygon fill="white" points="146,29 272,29 272,38 146,38"/>
<text x="147" y="38" textLength="124" font-family="Helvetica" font-size="12" fill="black">
Prepare message hash
</text>
<line x1="210" y1="50" x2="210" y2="78" stroke="black"/>
<line x1="630" y1="50" x2="630" y2="78" stroke="black"/>
<line x1="210" y1="61" x2="630" y2="61" stroke="black"/>
<line x1="630" y1="61" x2="620" y2="67" stroke="black"/>
<polygon fill="white" points="392,51 446,51 446,60 392,60"/>
<text x="393" y="60" textLength="52" font-family="Helvetica" font-size="12" fill="black">
RSA Sign
</text>
<polygon fill="white" points="268,62 571,62 571,71 268,71"/>
<text x="269" y="71" textLength="301" font-family="Helvetica" font-size="12" fill="black">
(Keystore slot, Plaintext Data, Signature Output Location
</text>
<line x1="210" y1="78" x2="210" y2="106" stroke="black"/>
<line x1="630" y1="78" x2="630" y2="106" stroke="black"/>
<polygon fill="white" points="428,78 832,78 832,100 428,100"/>
<line x1="428" y1="78" x2="832" y2="78" stroke="black"/>
<line x1="428" y1="100" x2="832" y2="100" stroke="black"/>
<line x1="428" y1="78" x2="428" y2="100" stroke="black"/>
<line x1="832" y1="78" x2="832" y2="100" stroke="black"/>
<polygon fill="white" points="528,85 731,85 731,94 528,94"/>
<text x="529" y="94" textLength="201" font-family="Helvetica" font-size="12" fill="black">
Copy plaintext data to DMSC memory
</text>
<line x1="210" y1="106" x2="210" y2="134" stroke="black"/>
<line x1="630" y1="106" x2="630" y2="134" stroke="black"/>
<polygon fill="white" points="428,106 832,106 832,128 428,128"/>
<line x1="428" y1="106" x2="832" y2="106" stroke="black"/>
<line x1="428" y1="128" x2="832" y2="128" stroke="black"/>
<line x1="428" y1="106" x2="428" y2="128" stroke="black"/>
<line x1="832" y1="106" x2="832" y2="128" stroke="black"/>
<polygon fill="white" points="443,113 815,113 815,122 443,122"/>
<text x="444" y="122" textLength="370" font-family="Helvetica" font-size="12" fill="black">
Calculate signature of (encrypt) the data with the specified private key
</text>
<line x1="210" y1="134" x2="210" y2="162" stroke="black"/>
<line x1="630" y1="134" x2="630" y2="162" stroke="black"/>
<polygon fill="white" points="428,134 832,134 832,156 428,156"/>
<line x1="428" y1="134" x2="832" y2="134" stroke="black"/>
<line x1="428" y1="156" x2="832" y2="156" stroke="black"/>
<line x1="428" y1="134" x2="428" y2="156" stroke="black"/>
<line x1="832" y1="134" x2="832" y2="156" stroke="black"/>
<polygon fill="white" points="515,141 743,141 743,150 515,150"/>
<text x="516" y="150" textLength="226" font-family="Helvetica" font-size="12" fill="black">
Copy signature to specified output location
</text>
<line x1="210" y1="162" x2="210" y2="190" stroke="black"/>
<line x1="630" y1="162" x2="630" y2="190" stroke="black"/>
<line x1="630" y1="173" x2="210" y2="173" stroke="black"/>
<line x1="210" y1="173" x2="220" y2="179" stroke="black"/>
<polygon fill="white" points="394,163 445,163 445,172 394,172"/>
<text x="395" y="172" textLength="49" font-family="Helvetica" font-size="12" fill="black">
Pass/Fail
</text>
<line x1="210" y1="184" x2="210" y2="190" stroke="black"/>
<line x1="630" y1="184" x2="630" y2="190" stroke="black"/>
</svg>
