<!DOCTYPE svg PUBLIC "-//W3C//DTD SVG 1.1//EN"
 "http://www.w3.org/Graphics/SVG/1.1/DTD/svg11.dtd">
<svg version="1.1"
 width="840px" height="162px"
 viewBox="0 0 840 162"
 xmlns="http://www.w3.org/2000/svg" shape-rendering="crispEdges"
 stroke-width="1" text-rendering="geometricPrecision">
<polygon fill="white" points="192,7 226,7 226,16 192,16"/>
<text x="210" y="16" textLength="33" font-family="Helvetica" font-size="12" fill="black" text-anchor="middle">

host 0
</text>
<polygon fill="white" points="611,7 647,7 647,16 611,16"/>
<text x="630" y="16" textLength="35" font-family="Helvetica" font-size="12" fill="black" text-anchor="middle">

DMSC
</text>
<line x1="210" y1="22" x2="210" y2="50" stroke="black"/>
<line x1="630" y1="22" x2="630" y2="50" stroke="black"/>
<polygon fill="white" points="8,22 412,22 412,44 8,44"/>
<line x1="8" y1="22" x2="412" y2="22" stroke="black"/>
<line x1="8" y1="44" x2="412" y2="44" stroke="black"/>
<line x1="8" y1="22" x2="8" y2="44" stroke="black"/>
<line x1="412" y1="22" x2="412" y2="44" stroke="black"/>
<polygon fill="white" points="136,29 283,29 283,38 136,38"/>
<text x="137" y="38" textLength="145" font-family="Helvetica" font-size="12" fill="black">
Calculate hash of message
</text>
<line x1="210" y1="50" x2="210" y2="78" stroke="black"/>
<line x1="630" y1="50" x2="630" y2="78" stroke="black"/>
<line x1="210" y1="61" x2="630" y2="61" stroke="black"/>
<line x1="630" y1="61" x2="620" y2="67" stroke="black"/>
<polygon fill="white" points="381,51 458,51 458,60 381,60"/>
<text x="382" y="60" textLength="75" font-family="Helvetica" font-size="12" fill="black">
ECDSA Verify
</text>
<polygon fill="white" points="334,62 504,62 504,71 334,71"/>
<text x="335" y="71" textLength="168" font-family="Helvetica" font-size="12" fill="black">
(Hash, Signature, keystore slot)
</text>
<line x1="210" y1="78" x2="210" y2="106" stroke="black"/>
<line x1="630" y1="78" x2="630" y2="106" stroke="black"/>
<polygon fill="white" points="428,78 832,78 832,100 428,100"/>
<line x1="428" y1="78" x2="832" y2="78" stroke="black"/>
<line x1="428" y1="100" x2="832" y2="100" stroke="black"/>
<line x1="428" y1="78" x2="428" y2="100" stroke="black"/>
<line x1="832" y1="78" x2="832" y2="100" stroke="black"/>
<polygon fill="white" points="512,85 746,85 746,94 512,94"/>
<text x="513" y="94" textLength="232" font-family="Helvetica" font-size="12" fill="black">
Copy hash and signature to DMSC memory
</text>
<line x1="210" y1="106" x2="210" y2="134" stroke="black"/>
<line x1="630" y1="106" x2="630" y2="134" stroke="black"/>
<polygon fill="white" points="428,106 832,106 832,128 428,128"/>
<line x1="428" y1="106" x2="832" y2="106" stroke="black"/>
<line x1="428" y1="128" x2="832" y2="128" stroke="black"/>
<line x1="428" y1="106" x2="428" y2="128" stroke="black"/>
<line x1="832" y1="106" x2="832" y2="128" stroke="black"/>
<polygon fill="white" points="503,113 756,113 756,122 503,122"/>
<text x="504" y="122" textLength="251" font-family="Helvetica" font-size="12" fill="black">
Verify signature against hash and specified key
</text>
<line x1="210" y1="134" x2="210" y2="162" stroke="black"/>
<line x1="630" y1="134" x2="630" y2="162" stroke="black"/>
<line x1="630" y1="145" x2="210" y2="145" stroke="black"/>
<line x1="210" y1="145" x2="220" y2="151" stroke="black"/>
<polygon fill="white" points="394,135 445,135 445,144 394,144"/>
<text x="395" y="144" textLength="49" font-family="Helvetica" font-size="12" fill="black">
Pass/Fail
</text>
<line x1="210" y1="156" x2="210" y2="162" stroke="black"/>
<line x1="630" y1="156" x2="630" y2="162" stroke="black"/>
</svg>
